# xmcd
#
# Track frame offsets:
#	150
#	12728
#	25039
#	40793
#	54309
#	66482
#	85249
#	97523
#	111692
#	125558
#	139196
#	152141
#	172050
#	188127
#	203376
#	220147
#	237522
#	252304
#	267153
#	280370
#	296833
#	310567
#
# Disc length: 4322 seconds
#
# Revision: 0
# Processed by: cddbd v1.4PL0 Copyright (c) Steve Scherf et al.
# Submitted via: dBpowerAMP V4.0
#
DISCID=4510e016
DTITLE=Johnny Marks - Down Memory Lane
DYEAR=2002
DGENRE=Country
TTITLE0=Yellow Roses
TTITLE1=Old Mother Nature
TTITLE2=Till Each Tear You Cry
TTITLE3=Sweet Spanish Memories
TTITLE4=My Rose Of The Prairie
TTITLE5=Things I Wish I'd Said
TTITLE6=One Minute Past Eternity
TTITLE7=My Son
TTITLE8=Chained To A Memory Of You
TTITLE9=Three Good Reasons
TTITLE10=Will You Be There
TTITLE11=Johnny's Coming Home
TTITLE12=Wolverton Mountain
TTITLE13=I Cry Every Night For You
TTITLE14=The Bitter With The Sweet
TTITLE15=Don't Forget To Remember Me
TTITLE16=True Blue
TTITLE17=I Turn To You
TTITLE18=Too Many Chiefs
TTITLE19=These Old Eyes Have Seen It All 
TTITLE20=Fools And Losers
TTITLE21=When I Leave This World Behind
EXTD=
EXTT0=
EXTT1=
EXTT2=
EXTT3=
EXTT4=
EXTT5=
EXTT6=
EXTT7=
EXTT8=
EXTT9=
EXTT10=
EXTT11=
EXTT12=
EXTT13=
EXTT14=
EXTT15=
EXTT16=
EXTT17=
EXTT18=
EXTT19=
EXTT20=
EXTT21=
PLAYORDER=
